<svg width="15%" viewBox="0 0 60 60" fill="none" xmlns="http://www.w3.org/2000/svg">
    <g clip-path="url(#clip0)">
        <path d="M15.6 2L0 38L26 20L15.6 2Z" fill="#FFDEA0" stroke="#F6D4A1" stroke-width="2" />
        <path d="M43.5789 2L60 38L34 18.5405L43.5789 2Z" fill="#FFDEA0" stroke="#F6D4A1"
            stroke-width="2" />
        <path
            d="M59 38C59 43.68 55.8626 48.9067 50.6218 52.7499C45.3817 56.5927 38.094 59 30 59C21.906 59 14.6183 56.5927 9.37816 52.7499C4.13739 48.9067 1 43.68 1 38C1 32.32 4.13739 27.0933 9.37816 23.2501C14.6183 19.4073 21.906 17 30 17C38.094 17 45.3817 19.4073 50.6218 23.2501C55.8626 27.0933 59 32.32 59 38Z"
            fill="#FBE2B3" stroke="#F6D4A1" stroke-width="2" />
        <path d="M12 54L30.4865 44L48 54" stroke="#F6D4A1" stroke-width="2" />
        <path d="M12 52L30.4865 42L48 52" stroke="#576780" stroke-width="2" />
        <path d="M30 40L26 36H34L30 40Z" fill="#576780" stroke="#576780" stroke-width="2" />
        <path d="M14 30L21 26L28 30" stroke="#576780" stroke-width="2" />
        <path d="M34 30L44 26" stroke="#576780" stroke-width="2" />
        <path d="M20 30L24 32" stroke="#576780" stroke-width="2" />
        <path d="M36 32L40 30" stroke="#576780" stroke-width="2" />
        <path d="M20 40L18 49V58L26 62L41 57L37 56L40 53L36 52L39 49L35 48L41 40L24 49L20 40Z"
            fill="#FFDEA0" stroke="#D8A962" stroke-width="2" />
    </g>
    <defs>
        <clipPath id="clip0">
            <rect width="60" height="60" fill="white" />
        </clipPath>
    </defs>
</svg>